<?xml version="1.0" encoding="utf-8"?>
<!-- Generator: Adobe Illustrator 22.0.1, SVG Export Plug-In . SVG Version: 6.00 Build 0)  -->
<!DOCTYPE svg PUBLIC "-//W3C//DTD SVG 1.1//EN" "http://www.w3.org/Graphics/SVG/1.1/DTD/svg11.dtd">
<svg version="1.1" xmlns="http://www.w3.org/2000/svg" xmlns:xlink="http://www.w3.org/1999/xlink" x="0px" y="0px"
	 viewBox="0 0 406.5 79" style="enable-background:new 0 0 406.5 79;" xml:space="preserve">
<style type="text/css">
	.st0{fill:#97BF0D;}
	.st1{fill:#FFED00;}
	.st2{fill:#343A26;}
	.st3{fill:#5B7712;}
	.st4{clip-path:url(#SVGID_2_);}
	.st5{clip-path:url(#SVGID_4_);}
	.st6{fill:#FFFFFF;}
	.st7{clip-path:url(#SVGID_6_);}
	.st8{clip-path:url(#SVGID_8_);}
	.st9{clip-path:url(#SVGID_10_);}
	.st10{clip-path:url(#SVGID_12_);}
	.st11{clip-path:url(#SVGID_14_);}
	.st12{fill:url(#SVGID_15_);}
	.st13{fill:url(#SVGID_16_);}
	.st14{fill:#DBDCDD;}
</style>
<g id="Calque_1">
	<g>
		<path class="st0" d="M78.1,50.7c0.8-7.4,0.8-15.1-0.1-22.4c-0.1-1.2-0.3-2.5-0.6-4.2c-1.1-7-3-12.7-5.5-16.6
			c-3.9-2.5-9.6-4.3-16.6-5.5c-1-0.1-3.3-0.5-4.2-0.6c-7.3-0.8-15-0.8-22.4-0.1c-1.4,0.1-3.2,0.4-4.3,0.6c-7,1.1-12.8,2.9-16.8,5.4
			C5.3,11.3,3.5,17,2.4,24.1c-0.2,1.2-0.4,3.2-0.6,4.3C1,35.7,1,43.4,1.8,50.8c0.2,1.6,0.3,2.6,0.6,4.3c1.1,7,2.9,12.8,5.3,16.9
			c4,2.4,9.8,4.2,16.9,5.3c0.9,0.2,2.8,0.4,4.3,0.6c7.4,0.8,15.1,0.7,22.5-0.1c1.4-0.1,2.4-0.3,4.3-0.6c7-1.1,12.8-2.9,16.7-5.4
			c2.5-4,4.2-9.8,5.4-16.8C77.8,53.6,78,51.9,78.1,50.7"/>
		<path class="st6" d="M15.9,63.7c-5.8-14.1-6.7-34,0.1-48.1c1.9-1.1,3.2-1.6,6.1-2.4c4.7,16,11.7,31.1,17.9,46.6
			c6.1-15.3,13.6-30.6,17.7-46.6c2.9,0.8,4.2,1.3,6.2,2.4c6.9,14,5.9,33.8,0.1,47.8c-1.3,0.7-2.1,1.1-3.9,1.7
			c4.6-14.4,5.1-31.8,1.5-46.5C59,35.3,48.4,53,41.6,68.1c-1.4,0-2,0-3.4,0c-7-15.6-16.6-32.6-20.1-49.4
			c-2.9,14.7-3.6,32.3,1.6,46.6C18,64.7,17.2,64.4,15.9,63.7"/>
		<g>
			<path d="M84.9,62H83l18.9-44.1h2.3L123.1,62h-1.9l-6.6-15.4H91.5L84.9,62z M103,19.5L92.3,45h21.5L103,19.5z"/>
			<path d="M166,59.6V17.8h1.8V62h-2.3l-30.8-42.4V62H133V17.8h2.7L166,59.6z"/>
			<path d="M181.9,62V17.8h1.8v21.1h24.7V17.8h1.8V62h-1.8V40.5h-24.7V62H181.9z"/>
			<path d="M221.9,62H220l18.9-44.1h2.3L260.1,62h-1.9l-6.6-15.4h-23.1L221.9,62z M240,19.5L229.3,45h21.5L240,19.5z"/>
			<path d="M272.7,19.4h-12v-1.6h25.8v1.6h-12V62h-1.8V19.4z"/>
			<path d="M303.9,19.4h-12v-1.6h25.8v1.6h-12V62h-1.8V19.4z"/>
			<path d="M320.2,62h-1.9l18.9-44.1h2.3L358.4,62h-1.9l-6.6-15.4h-23.1L320.2,62z M338.3,19.5L327.6,45h21.5L338.3,19.5z"/>
			<path d="M401.3,59.6V17.8h1.8V62h-2.3L370,19.6V62h-1.8V17.8h2.7L401.3,59.6z"/>
		</g>
	</g>
</g>
<g id="N_xB0_">
</g>
</svg>
